G04 EAGLE Gerber RS-274X export*
G75*
%MOMM*%
%FSLAX34Y34*%
%LPD*%
%INBottom Copper*%
%IPPOS*%
%AMOC8*
5,1,8,0,0,1.08239X$1,22.5*%
G01*
G04 Define Apertures*
%ADD10P,2.74927X8X22.5*%
%ADD11C,0.756400*%
%ADD12C,0.152400*%
G36*
X23052Y-571272D02*
X22991Y-571275D01*
X-22991Y-571275D01*
X-23052Y-571272D01*
X-68885Y-567572D01*
X-68946Y-567565D01*
X-114332Y-560189D01*
X-114392Y-560177D01*
X-159038Y-549173D01*
X-159097Y-549156D01*
X-202712Y-534595D01*
X-202770Y-534573D01*
X-245072Y-516550D01*
X-245127Y-516523D01*
X-285842Y-495154D01*
X-285895Y-495124D01*
X-324759Y-470548D01*
X-324809Y-470513D01*
X-361569Y-442890D01*
X-361616Y-442851D01*
X-396034Y-412360D01*
X-396079Y-412317D01*
X-427931Y-379155D01*
X-427972Y-379109D01*
X-457053Y-343491D01*
X-457090Y-343442D01*
X-483210Y-305600D01*
X-483243Y-305548D01*
X-506234Y-265727D01*
X-506263Y-265672D01*
X-525975Y-224130D01*
X-525999Y-224074D01*
X-542304Y-181080D01*
X-542323Y-181022D01*
X-555116Y-136856D01*
X-555131Y-136796D01*
X-564329Y-91743D01*
X-564338Y-91683D01*
X-569881Y-46036D01*
X-569886Y-45975D01*
X-571737Y-31D01*
X-571737Y31D01*
X-569886Y45975D01*
X-569881Y46036D01*
X-564338Y91683D01*
X-564329Y91743D01*
X-555131Y136796D01*
X-555116Y136856D01*
X-542323Y181022D01*
X-542304Y181080D01*
X-525999Y224074D01*
X-525975Y224130D01*
X-506263Y265672D01*
X-506234Y265727D01*
X-483243Y305548D01*
X-483210Y305600D01*
X-457090Y343442D01*
X-457053Y343491D01*
X-427972Y379109D01*
X-427931Y379155D01*
X-396079Y412317D01*
X-396034Y412360D01*
X-361616Y442851D01*
X-361569Y442890D01*
X-324809Y470513D01*
X-324759Y470548D01*
X-285895Y495124D01*
X-285842Y495154D01*
X-245127Y516523D01*
X-245072Y516550D01*
X-202770Y534573D01*
X-202712Y534595D01*
X-159097Y549156D01*
X-159038Y549173D01*
X-114392Y560177D01*
X-114332Y560189D01*
X-68946Y567565D01*
X-68885Y567572D01*
X-23052Y571272D01*
X-22991Y571275D01*
X22991Y571275D01*
X23052Y571272D01*
X68885Y567572D01*
X68946Y567565D01*
X114332Y560189D01*
X114392Y560177D01*
X159038Y549173D01*
X159097Y549156D01*
X202712Y534595D01*
X202770Y534573D01*
X245072Y516550D01*
X245127Y516523D01*
X285842Y495154D01*
X285895Y495124D01*
X324759Y470548D01*
X324809Y470513D01*
X361569Y442890D01*
X361616Y442851D01*
X396034Y412360D01*
X396079Y412317D01*
X427931Y379155D01*
X427972Y379109D01*
X457053Y343491D01*
X457090Y343442D01*
X483210Y305600D01*
X483243Y305548D01*
X506234Y265727D01*
X506263Y265672D01*
X525975Y224130D01*
X525999Y224074D01*
X542304Y181080D01*
X542323Y181022D01*
X555116Y136856D01*
X555131Y136796D01*
X564329Y91743D01*
X564338Y91683D01*
X569881Y46036D01*
X569886Y45975D01*
X571737Y31D01*
X571737Y-31D01*
X569886Y-45975D01*
X569881Y-46036D01*
X564338Y-91683D01*
X564329Y-91743D01*
X555131Y-136796D01*
X555116Y-136856D01*
X542323Y-181022D01*
X542304Y-181080D01*
X525999Y-224074D01*
X525975Y-224130D01*
X506263Y-265672D01*
X506234Y-265727D01*
X483243Y-305548D01*
X483210Y-305600D01*
X457090Y-343442D01*
X457053Y-343491D01*
X427972Y-379109D01*
X427931Y-379155D01*
X396079Y-412317D01*
X396034Y-412360D01*
X361616Y-442851D01*
X361569Y-442890D01*
X324809Y-470513D01*
X324759Y-470548D01*
X285895Y-495124D01*
X285842Y-495154D01*
X245127Y-516523D01*
X245072Y-516550D01*
X202770Y-534573D01*
X202712Y-534595D01*
X159097Y-549156D01*
X159038Y-549173D01*
X114392Y-560177D01*
X114332Y-560189D01*
X68946Y-567565D01*
X68885Y-567572D01*
X23052Y-571272D01*
G37*
%LPC*%
G36*
X51142Y538254D02*
X55538Y538254D01*
X58646Y541362D01*
X58646Y545758D01*
X55538Y548866D01*
X51142Y548866D01*
X48478Y546202D01*
X48219Y546032D01*
X47921Y545979D01*
X-47751Y548312D01*
X-48019Y548368D01*
X-48271Y548535D01*
X-51142Y551406D01*
X-55538Y551406D01*
X-58646Y548298D01*
X-58646Y543902D01*
X-55538Y540794D01*
X-51142Y540794D01*
X-48418Y543519D01*
X-48159Y543689D01*
X-47860Y543742D01*
X47688Y541411D01*
X47955Y541356D01*
X48208Y541188D01*
X51142Y538254D01*
G37*
G36*
X202272Y501424D02*
X206668Y501424D01*
X209776Y504532D01*
X209776Y508928D01*
X206668Y512036D01*
X202272Y512036D01*
X200951Y510715D01*
X200769Y510580D01*
X200478Y510495D01*
X200177Y510529D01*
X108702Y540258D01*
X108408Y540435D01*
X108236Y540686D01*
X108176Y540983D01*
X108176Y541948D01*
X105068Y545056D01*
X100672Y545056D01*
X97564Y541948D01*
X97564Y537552D01*
X100672Y534444D01*
X105068Y534444D01*
X106389Y535765D01*
X106571Y535900D01*
X106862Y535985D01*
X107163Y535951D01*
X198638Y506222D01*
X198932Y506045D01*
X199104Y505794D01*
X199164Y505497D01*
X199164Y504532D01*
X202272Y501424D01*
G37*
G36*
X-207938Y505234D02*
X-203542Y505234D01*
X-200434Y508342D01*
X-200434Y508948D01*
X-200334Y509325D01*
X-200134Y509554D01*
X-199861Y509686D01*
X-106116Y533694D01*
X-105939Y533717D01*
X-105641Y533662D01*
X-105388Y533494D01*
X-103798Y531904D01*
X-99402Y531904D01*
X-96294Y535012D01*
X-96294Y539408D01*
X-99402Y542516D01*
X-103798Y542516D01*
X-106906Y539408D01*
X-106906Y538802D01*
X-107006Y538425D01*
X-107206Y538196D01*
X-107479Y538064D01*
X-201224Y514056D01*
X-201401Y514033D01*
X-201699Y514088D01*
X-201952Y514256D01*
X-203542Y515846D01*
X-207938Y515846D01*
X-211046Y512738D01*
X-211046Y508342D01*
X-207938Y505234D01*
G37*
G36*
X-44628Y-524340D02*
X0Y-526236D01*
X44628Y-524340D01*
X88934Y-518667D01*
X132600Y-509256D01*
X175310Y-496176D01*
X216757Y-479521D01*
X256643Y-459412D01*
X294679Y-435992D01*
X330592Y-409430D01*
X364123Y-379919D01*
X395031Y-347671D01*
X423093Y-312917D01*
X448105Y-275910D01*
X469890Y-236913D01*
X488289Y-196211D01*
X503170Y-154094D01*
X514425Y-110867D01*
X521974Y-66841D01*
X525762Y-22334D01*
X525762Y22334D01*
X524223Y40411D01*
X524268Y40739D01*
X524427Y40997D01*
X524674Y41173D01*
X524971Y41238D01*
X525269Y41182D01*
X525521Y41015D01*
X528662Y37874D01*
X533058Y37874D01*
X536166Y40982D01*
X536166Y45378D01*
X532930Y48614D01*
X532856Y48652D01*
X532661Y48884D01*
X532572Y49174D01*
X528800Y87834D01*
X528828Y88124D01*
X537912Y118782D01*
X538104Y119105D01*
X538226Y119227D01*
X538226Y119732D01*
X538257Y119948D01*
X538401Y120432D01*
X538318Y120584D01*
X538226Y120948D01*
X538226Y125277D01*
X538282Y125563D01*
X538449Y125815D01*
X541246Y128612D01*
X541246Y133008D01*
X538138Y136116D01*
X533742Y136116D01*
X530634Y133008D01*
X530634Y128612D01*
X533431Y125815D01*
X533594Y125574D01*
X533654Y125277D01*
X533654Y120616D01*
X533623Y120399D01*
X524451Y89446D01*
X524309Y89178D01*
X524100Y88924D01*
X524135Y88574D01*
X524107Y88283D01*
X524007Y87945D01*
X524164Y87656D01*
X524252Y87367D01*
X528065Y48282D01*
X528013Y47922D01*
X527846Y47670D01*
X525554Y45378D01*
X525554Y42716D01*
X525530Y42526D01*
X525397Y42253D01*
X525169Y42054D01*
X524881Y41959D01*
X524579Y41984D01*
X524310Y42126D01*
X524118Y42360D01*
X524033Y42651D01*
X521974Y66841D01*
X514425Y110867D01*
X503170Y154094D01*
X488289Y196211D01*
X469890Y236913D01*
X448105Y275910D01*
X423093Y312917D01*
X419551Y317303D01*
X419452Y317463D01*
X419382Y317758D01*
X419433Y318057D01*
X419597Y318312D01*
X419847Y318484D01*
X420144Y318544D01*
X423838Y318544D01*
X426946Y321652D01*
X426946Y326048D01*
X423838Y329156D01*
X420360Y329156D01*
X420030Y329231D01*
X419788Y329415D01*
X402614Y348931D01*
X402458Y349207D01*
X389671Y390128D01*
X389636Y390355D01*
X389636Y390837D01*
X389497Y390976D01*
X389308Y391288D01*
X389250Y391476D01*
X388823Y391699D01*
X388638Y391835D01*
X386529Y393944D01*
X386366Y394185D01*
X386306Y394483D01*
X386306Y398438D01*
X383198Y401546D01*
X378802Y401546D01*
X375694Y398438D01*
X375694Y394042D01*
X378802Y390934D01*
X382757Y390934D01*
X383043Y390878D01*
X383296Y390711D01*
X385203Y388804D01*
X385392Y388492D01*
X398119Y347765D01*
X398152Y347489D01*
X398128Y347108D01*
X398326Y346883D01*
X398481Y346607D01*
X398570Y346322D01*
X398908Y346144D01*
X399127Y345973D01*
X416144Y326635D01*
X416274Y326429D01*
X416334Y326132D01*
X416334Y323444D01*
X416255Y323107D01*
X416069Y322867D01*
X415805Y322719D01*
X415503Y322685D01*
X415213Y322772D01*
X414979Y322966D01*
X395031Y347671D01*
X364123Y379919D01*
X330592Y409430D01*
X294679Y435992D01*
X256643Y459412D01*
X216757Y479521D01*
X175310Y496176D01*
X132600Y509256D01*
X88934Y518667D01*
X44628Y524340D01*
X0Y526236D01*
X-44628Y524340D01*
X-88934Y518667D01*
X-132600Y509256D01*
X-175310Y496176D01*
X-216757Y479521D01*
X-256643Y459412D01*
X-294679Y435992D01*
X-330592Y409430D01*
X-364123Y379919D01*
X-395031Y347671D01*
X-423093Y312917D01*
X-448105Y275910D01*
X-469890Y236913D01*
X-488289Y196211D01*
X-503170Y154094D01*
X-514425Y110867D01*
X-521974Y66841D01*
X-525762Y22334D01*
X-525762Y-22334D01*
X-521974Y-66841D01*
X-514425Y-110867D01*
X-503170Y-154094D01*
X-488289Y-196211D01*
X-469890Y-236913D01*
X-448105Y-275910D01*
X-423093Y-312917D01*
X-395031Y-347671D01*
X-364123Y-379919D01*
X-330592Y-409430D01*
X-294679Y-435992D01*
X-256643Y-459412D01*
X-216757Y-479521D01*
X-175310Y-496176D01*
X-132600Y-509256D01*
X-88934Y-518667D01*
X-44628Y-524340D01*
G37*
G36*
X336892Y423954D02*
X341288Y423954D01*
X344396Y427062D01*
X344396Y431458D01*
X341288Y434566D01*
X336892Y434566D01*
X336678Y434352D01*
X336300Y434146D01*
X335997Y434142D01*
X335716Y434257D01*
X255835Y487511D01*
X255556Y487847D01*
X255496Y488145D01*
X255496Y489878D01*
X252388Y492986D01*
X247992Y492986D01*
X244884Y489878D01*
X244884Y485482D01*
X247992Y482374D01*
X252388Y482374D01*
X253110Y483096D01*
X253488Y483302D01*
X253791Y483306D01*
X254072Y483192D01*
X333445Y430276D01*
X333724Y429939D01*
X333784Y429642D01*
X333784Y427062D01*
X336892Y423954D01*
G37*
G36*
X-342558Y423954D02*
X-338162Y423954D01*
X-335054Y427062D01*
X-335054Y429497D01*
X-335038Y429652D01*
X-334919Y429931D01*
X-334700Y430141D01*
X-253642Y481516D01*
X-253246Y481634D01*
X-252948Y481579D01*
X-252695Y481411D01*
X-252388Y481104D01*
X-247992Y481104D01*
X-244884Y484212D01*
X-244884Y488608D01*
X-247992Y491716D01*
X-252388Y491716D01*
X-255496Y488608D01*
X-255496Y486173D01*
X-255512Y486018D01*
X-255631Y485739D01*
X-255850Y485529D01*
X-336908Y434154D01*
X-337304Y434036D01*
X-337602Y434091D01*
X-337855Y434259D01*
X-338162Y434566D01*
X-342558Y434566D01*
X-345666Y431458D01*
X-345666Y427062D01*
X-342558Y423954D01*
G37*
G36*
X-450508Y312194D02*
X-446112Y312194D01*
X-443004Y315302D01*
X-443004Y319739D01*
X-442964Y319983D01*
X-442812Y320245D01*
X-379075Y391948D01*
X-378803Y392144D01*
X-378506Y392204D01*
X-374992Y392204D01*
X-371884Y395312D01*
X-371884Y399708D01*
X-374992Y402816D01*
X-379388Y402816D01*
X-382496Y399708D01*
X-382496Y395271D01*
X-382536Y395027D01*
X-382688Y394765D01*
X-446425Y323062D01*
X-446697Y322866D01*
X-446994Y322806D01*
X-450508Y322806D01*
X-453616Y319698D01*
X-453616Y315302D01*
X-450508Y312194D01*
G37*
G36*
X410668Y347726D02*
X422452Y347726D01*
X430784Y356058D01*
X430784Y367842D01*
X422452Y376174D01*
X410668Y376174D01*
X402336Y367842D01*
X402336Y356058D01*
X410668Y347726D01*
G37*
G36*
X-520358Y172494D02*
X-515962Y172494D01*
X-512854Y175602D01*
X-512854Y179998D01*
X-514565Y181709D01*
X-514737Y181972D01*
X-514788Y182271D01*
X-514718Y182566D01*
X-475111Y268571D01*
X-474966Y268782D01*
X-474716Y268954D01*
X-474419Y269014D01*
X-472782Y269014D01*
X-469674Y272122D01*
X-469674Y276518D01*
X-472782Y279626D01*
X-477178Y279626D01*
X-480286Y276518D01*
X-480286Y272122D01*
X-479445Y271281D01*
X-479273Y271017D01*
X-479222Y270718D01*
X-479291Y270423D01*
X-519299Y183549D01*
X-519444Y183338D01*
X-519694Y183166D01*
X-519991Y183106D01*
X-520358Y183106D01*
X-523466Y179998D01*
X-523466Y175602D01*
X-520358Y172494D01*
G37*
G36*
X515962Y173764D02*
X520358Y173764D01*
X523466Y176872D01*
X523466Y181268D01*
X520358Y184376D01*
X518726Y184376D01*
X518473Y184419D01*
X518213Y184575D01*
X518034Y184820D01*
X478888Y270021D01*
X478818Y270327D01*
X478874Y270625D01*
X479041Y270877D01*
X480286Y272122D01*
X480286Y276518D01*
X477178Y279626D01*
X472782Y279626D01*
X469674Y276518D01*
X469674Y272122D01*
X472782Y269014D01*
X473830Y269014D01*
X474083Y268971D01*
X474344Y268815D01*
X474523Y268570D01*
X513853Y182970D01*
X513922Y182664D01*
X513866Y182366D01*
X513699Y182113D01*
X512854Y181268D01*
X512854Y176872D01*
X515962Y173764D01*
G37*
G36*
X-550838Y20094D02*
X-546442Y20094D01*
X-543334Y23202D01*
X-543334Y27598D01*
X-545286Y29550D01*
X-545489Y29914D01*
X-545499Y30217D01*
X-529555Y123600D01*
X-529351Y124002D01*
X-529101Y124174D01*
X-528804Y124234D01*
X-528662Y124234D01*
X-525554Y127342D01*
X-525554Y131738D01*
X-528662Y134846D01*
X-533058Y134846D01*
X-536166Y131738D01*
X-536166Y127342D01*
X-534214Y125390D01*
X-534011Y125026D01*
X-534002Y124723D01*
X-549945Y31340D01*
X-550149Y30938D01*
X-550399Y30766D01*
X-550696Y30706D01*
X-550838Y30706D01*
X-553946Y27598D01*
X-553946Y23202D01*
X-550838Y20094D01*
G37*
G36*
X540141Y69142D02*
X551925Y69142D01*
X560257Y77474D01*
X560257Y89258D01*
X551925Y97590D01*
X540141Y97590D01*
X531809Y89258D01*
X531809Y77474D01*
X540141Y69142D01*
G37*
G36*
X527392Y-70076D02*
X531788Y-70076D01*
X534896Y-66968D01*
X534896Y-64684D01*
X534916Y-64511D01*
X535042Y-64235D01*
X535266Y-64030D01*
X536154Y-63498D01*
X536368Y-63410D01*
X536447Y-63407D01*
X537170Y-62891D01*
X537221Y-62858D01*
X537967Y-62410D01*
X537975Y-62390D01*
X538029Y-62332D01*
X538175Y-61456D01*
X538187Y-61396D01*
X538398Y-60552D01*
X538390Y-60532D01*
X538379Y-60229D01*
X547427Y-5943D01*
X547468Y-5793D01*
X547631Y-5538D01*
X547882Y-5366D01*
X548179Y-5306D01*
X548298Y-5306D01*
X551406Y-2198D01*
X551406Y2198D01*
X548298Y5306D01*
X543902Y5306D01*
X540794Y2198D01*
X540794Y-2198D01*
X542764Y-4168D01*
X542966Y-4529D01*
X542977Y-4832D01*
X533916Y-59196D01*
X533781Y-59519D01*
X533557Y-59724D01*
X533124Y-59984D01*
X532744Y-60092D01*
X532446Y-60037D01*
X532193Y-59869D01*
X531788Y-59464D01*
X527392Y-59464D01*
X524284Y-62572D01*
X524284Y-66968D01*
X527392Y-70076D01*
G37*
G36*
X543902Y-71346D02*
X548298Y-71346D01*
X551406Y-68238D01*
X551406Y-63842D01*
X549284Y-61720D01*
X549088Y-61383D01*
X549068Y-61081D01*
X553199Y-30097D01*
X553243Y-29923D01*
X553407Y-29668D01*
X553657Y-29496D01*
X553954Y-29436D01*
X554648Y-29436D01*
X557756Y-26328D01*
X557756Y-21932D01*
X554648Y-18824D01*
X550252Y-18824D01*
X547144Y-21932D01*
X547144Y-26328D01*
X548594Y-27778D01*
X548790Y-28114D01*
X548810Y-28417D01*
X544589Y-60073D01*
X544545Y-60247D01*
X544381Y-60502D01*
X544131Y-60674D01*
X543920Y-60717D01*
X540794Y-63842D01*
X540794Y-68238D01*
X543902Y-71346D01*
G37*
G36*
X-534328Y-136116D02*
X-529932Y-136116D01*
X-526824Y-133008D01*
X-526824Y-128612D01*
X-529932Y-125504D01*
X-529995Y-125504D01*
X-530157Y-125487D01*
X-530434Y-125365D01*
X-530642Y-125144D01*
X-530748Y-124860D01*
X-545563Y-30270D01*
X-545517Y-29866D01*
X-545349Y-29613D01*
X-543334Y-27598D01*
X-543334Y-23202D01*
X-546442Y-20094D01*
X-550838Y-20094D01*
X-553946Y-23202D01*
X-553946Y-27598D01*
X-550838Y-30706D01*
X-550775Y-30706D01*
X-550613Y-30723D01*
X-550336Y-30845D01*
X-550128Y-31066D01*
X-550022Y-31350D01*
X-535207Y-125940D01*
X-535253Y-126344D01*
X-535421Y-126597D01*
X-537436Y-128612D01*
X-537436Y-133008D01*
X-534328Y-136116D01*
G37*
G36*
X-477178Y-280896D02*
X-472782Y-280896D01*
X-469674Y-277788D01*
X-469674Y-273392D01*
X-472782Y-270284D01*
X-474327Y-270284D01*
X-474591Y-270237D01*
X-474849Y-270077D01*
X-475025Y-269830D01*
X-513917Y-181749D01*
X-513982Y-181454D01*
X-513926Y-181156D01*
X-513759Y-180903D01*
X-512854Y-179998D01*
X-512854Y-175602D01*
X-515962Y-172494D01*
X-520358Y-172494D01*
X-523466Y-175602D01*
X-523466Y-179998D01*
X-520358Y-183106D01*
X-518813Y-183106D01*
X-518549Y-183153D01*
X-518291Y-183313D01*
X-518115Y-183560D01*
X-479223Y-271641D01*
X-479158Y-271936D01*
X-479214Y-272234D01*
X-479381Y-272487D01*
X-480286Y-273392D01*
X-480286Y-277788D01*
X-477178Y-280896D01*
G37*
G36*
X468972Y-255496D02*
X473368Y-255496D01*
X476476Y-252388D01*
X476476Y-247992D01*
X475557Y-247074D01*
X475391Y-246824D01*
X475334Y-246526D01*
X475398Y-246229D01*
X484950Y-224396D01*
X485062Y-224223D01*
X485098Y-224058D01*
X487849Y-217770D01*
X488031Y-217515D01*
X521373Y-186840D01*
X521577Y-186709D01*
X522272Y-186015D01*
X522294Y-185993D01*
X522452Y-185847D01*
X522671Y-185706D01*
X522880Y-185664D01*
X526006Y-182538D01*
X526006Y-178142D01*
X522898Y-175034D01*
X518502Y-175034D01*
X515394Y-178142D01*
X515394Y-182538D01*
X516702Y-183846D01*
X516873Y-184106D01*
X516925Y-184405D01*
X516857Y-184700D01*
X516680Y-184946D01*
X484884Y-214197D01*
X484646Y-214346D01*
X484297Y-214483D01*
X484174Y-214763D01*
X483992Y-215018D01*
X483767Y-215225D01*
X483751Y-215600D01*
X483688Y-215874D01*
X471196Y-244427D01*
X471045Y-244652D01*
X470795Y-244824D01*
X470498Y-244884D01*
X468972Y-244884D01*
X465864Y-247992D01*
X465864Y-252388D01*
X468972Y-255496D01*
G37*
G36*
X486410Y-230378D02*
X500888Y-230378D01*
X500888Y-215900D01*
X495337Y-215900D01*
X486410Y-224827D01*
X486410Y-230378D01*
G37*
G36*
X502412Y-230378D02*
X516890Y-230378D01*
X516890Y-224827D01*
X507963Y-215900D01*
X502412Y-215900D01*
X502412Y-230378D01*
G37*
G36*
X502412Y-246380D02*
X507963Y-246380D01*
X516890Y-237453D01*
X516890Y-231902D01*
X502412Y-231902D01*
X502412Y-246380D01*
G37*
G36*
X495337Y-246380D02*
X500888Y-246380D01*
X500888Y-231902D01*
X486410Y-231902D01*
X486410Y-237453D01*
X495337Y-246380D01*
G37*
G36*
X-378118Y-402816D02*
X-373722Y-402816D01*
X-370614Y-399708D01*
X-370614Y-395312D01*
X-373722Y-392204D01*
X-377288Y-392204D01*
X-377627Y-392124D01*
X-377867Y-391938D01*
X-440281Y-319122D01*
X-440404Y-318923D01*
X-440464Y-318626D01*
X-440464Y-314032D01*
X-443572Y-310924D01*
X-447968Y-310924D01*
X-451076Y-314032D01*
X-451076Y-318428D01*
X-447968Y-321536D01*
X-444583Y-321536D01*
X-444244Y-321616D01*
X-444005Y-321802D01*
X-381409Y-394830D01*
X-381286Y-395029D01*
X-381226Y-395326D01*
X-381226Y-399708D01*
X-378118Y-402816D01*
G37*
G36*
X374992Y-402816D02*
X379388Y-402816D01*
X382496Y-399708D01*
X382496Y-395032D01*
X382530Y-394808D01*
X382675Y-394541D01*
X443320Y-322454D01*
X443595Y-322248D01*
X443891Y-322182D01*
X444189Y-322238D01*
X444442Y-322406D01*
X444842Y-322806D01*
X449238Y-322806D01*
X452346Y-319698D01*
X452346Y-315302D01*
X449238Y-312194D01*
X444842Y-312194D01*
X441734Y-315302D01*
X441734Y-316959D01*
X441700Y-317183D01*
X441555Y-317450D01*
X378895Y-391933D01*
X378609Y-392144D01*
X378312Y-392204D01*
X374992Y-392204D01*
X371884Y-395312D01*
X371884Y-399708D01*
X374992Y-402816D01*
G37*
G36*
X-252388Y-494256D02*
X-247992Y-494256D01*
X-244884Y-491148D01*
X-244884Y-486752D01*
X-247992Y-483644D01*
X-252388Y-483644D01*
X-252589Y-483845D01*
X-252969Y-484052D01*
X-253272Y-484054D01*
X-253552Y-483939D01*
X-333447Y-430296D01*
X-333724Y-429960D01*
X-333784Y-429663D01*
X-333784Y-427062D01*
X-336892Y-423954D01*
X-341288Y-423954D01*
X-344396Y-427062D01*
X-344396Y-431458D01*
X-341288Y-434566D01*
X-336892Y-434566D01*
X-336691Y-434365D01*
X-336311Y-434159D01*
X-336008Y-434156D01*
X-335728Y-434271D01*
X-255833Y-487914D01*
X-255556Y-488250D01*
X-255496Y-488547D01*
X-255496Y-491148D01*
X-252388Y-494256D01*
G37*
G36*
X247992Y-492986D02*
X252388Y-492986D01*
X255496Y-489878D01*
X255496Y-487505D01*
X255514Y-487343D01*
X255636Y-487066D01*
X255857Y-486858D01*
X336874Y-436650D01*
X337264Y-436535D01*
X337562Y-436591D01*
X337815Y-436758D01*
X338162Y-437106D01*
X342558Y-437106D01*
X345666Y-433998D01*
X345666Y-429602D01*
X342558Y-426494D01*
X338162Y-426494D01*
X335054Y-429602D01*
X335054Y-431975D01*
X335037Y-432137D01*
X334914Y-432414D01*
X334693Y-432622D01*
X253676Y-482831D01*
X253286Y-482945D01*
X252988Y-482889D01*
X252735Y-482722D01*
X252388Y-482374D01*
X247992Y-482374D01*
X244884Y-485482D01*
X244884Y-489878D01*
X247992Y-492986D01*
G37*
G36*
X100672Y-543786D02*
X105068Y-543786D01*
X108176Y-540678D01*
X108176Y-539822D01*
X108260Y-539474D01*
X108450Y-539237D01*
X108717Y-539093D01*
X198840Y-511714D01*
X199049Y-511681D01*
X199347Y-511737D01*
X199600Y-511904D01*
X201002Y-513306D01*
X205398Y-513306D01*
X208506Y-510198D01*
X208506Y-505802D01*
X205398Y-502694D01*
X201002Y-502694D01*
X197894Y-505802D01*
X197894Y-506658D01*
X197810Y-507006D01*
X197620Y-507243D01*
X197354Y-507387D01*
X107230Y-534766D01*
X107021Y-534799D01*
X106723Y-534743D01*
X106470Y-534576D01*
X105068Y-533174D01*
X100672Y-533174D01*
X97564Y-536282D01*
X97564Y-540678D01*
X100672Y-543786D01*
G37*
G36*
X-105068Y-543786D02*
X-100672Y-543786D01*
X-97564Y-540678D01*
X-97564Y-536282D01*
X-100672Y-533174D01*
X-105068Y-533174D01*
X-106533Y-534639D01*
X-106692Y-534761D01*
X-106980Y-534857D01*
X-107282Y-534833D01*
X-198613Y-508575D01*
X-198932Y-508390D01*
X-199104Y-508140D01*
X-199164Y-507843D01*
X-199164Y-507072D01*
X-202272Y-503964D01*
X-206668Y-503964D01*
X-209776Y-507072D01*
X-209776Y-511468D01*
X-206668Y-514576D01*
X-202272Y-514576D01*
X-200807Y-513111D01*
X-200648Y-512989D01*
X-200360Y-512893D01*
X-200058Y-512917D01*
X-108727Y-539175D01*
X-108408Y-539360D01*
X-108236Y-539610D01*
X-108176Y-539907D01*
X-108176Y-540678D01*
X-105068Y-543786D01*
G37*
G36*
X49872Y-551406D02*
X54268Y-551406D01*
X57376Y-548298D01*
X57376Y-543902D01*
X54268Y-540794D01*
X49872Y-540794D01*
X47141Y-543525D01*
X46891Y-543691D01*
X46593Y-543748D01*
X-47749Y-542611D01*
X-48025Y-542556D01*
X-48278Y-542388D01*
X-51142Y-539524D01*
X-55538Y-539524D01*
X-58646Y-542632D01*
X-58646Y-547028D01*
X-55538Y-550136D01*
X-51142Y-550136D01*
X-48411Y-547405D01*
X-48161Y-547239D01*
X-47863Y-547182D01*
X46479Y-548319D01*
X46755Y-548374D01*
X47008Y-548542D01*
X49872Y-551406D01*
G37*
%LPD*%
D10*
X416560Y361950D03*
X501650Y-231140D03*
X546033Y83366D03*
D11*
X552450Y-24130D03*
D12*
X551571Y-25009D01*
X546100Y-66040D01*
D11*
X546100Y-66040D03*
X530860Y43180D03*
D12*
X526467Y88204D01*
X535940Y120174D01*
X535940Y130810D01*
D11*
X535940Y130810D03*
X518160Y179070D03*
D12*
X474980Y273050D01*
X474980Y274320D01*
D11*
X474980Y274320D03*
X421640Y323850D03*
D12*
X400470Y347907D01*
X387350Y389890D01*
X381000Y396240D01*
D11*
X381000Y396240D03*
X339090Y429260D03*
D12*
X251460Y487680D01*
X250190Y487680D01*
D11*
X250190Y487680D03*
X204470Y506730D03*
D12*
X102870Y539750D01*
D11*
X102870Y539750D03*
X53340Y543560D03*
D12*
X-50800Y546100D01*
X-53340Y546100D01*
D11*
X-53340Y546100D03*
X-101600Y537210D03*
D12*
X-205740Y510540D01*
D11*
X-205740Y510540D03*
X-250190Y486410D03*
D12*
X-340360Y429260D01*
D11*
X-340360Y429260D03*
X-377190Y397510D03*
D12*
X-448310Y317500D01*
D11*
X-448310Y317500D03*
X-474980Y274320D03*
D12*
X-519430Y177800D01*
X-518160Y177800D01*
D11*
X-518160Y177800D03*
X-530860Y129540D03*
D12*
X-548640Y25400D01*
D11*
X-548640Y25400D03*
X-548640Y-25400D03*
D12*
X-532130Y-130810D01*
D11*
X-532130Y-130810D03*
X-518160Y-177800D03*
D12*
X-474980Y-275590D01*
D11*
X-474980Y-275590D03*
X-445770Y-316230D03*
D12*
X-377190Y-396240D01*
X-375920Y-397510D01*
D11*
X-375920Y-397510D03*
X-339090Y-429260D03*
D12*
X-250190Y-488950D01*
D11*
X-250190Y-488950D03*
X-204470Y-509270D03*
D12*
X-102870Y-538480D01*
D11*
X-102870Y-538480D03*
X-53340Y-544830D03*
D12*
X52070Y-546100D01*
D11*
X52070Y-546100D03*
X102870Y-538480D03*
D12*
X203200Y-508000D01*
D11*
X203200Y-508000D03*
X250190Y-487680D03*
D12*
X340360Y-431800D01*
D11*
X340360Y-431800D03*
X377190Y-397510D03*
D12*
X444500Y-317500D01*
X447040Y-317500D01*
D11*
X447040Y-317500D03*
X471170Y-250190D03*
D12*
X486011Y-216267D01*
X520700Y-184353D02*
X520700Y-180340D01*
X520700Y-184353D02*
X486011Y-216267D01*
D11*
X520700Y-180340D03*
X-177800Y501650D03*
X119380Y519430D03*
X261620Y466090D03*
X309880Y472440D03*
X-31750Y532130D03*
X8890Y565150D03*
X-314960Y431800D03*
X-298450Y477520D03*
X469900Y250190D03*
X515620Y228600D03*
X-511810Y240030D03*
X-497840Y193040D03*
X-560070Y-74930D03*
X-521970Y-109220D03*
X-430530Y-364490D03*
X-382270Y-370840D03*
X-162560Y-539750D03*
X-119380Y-520700D03*
X152400Y-542290D03*
X180340Y-501650D03*
X421640Y-374650D03*
X424180Y-323850D03*
X499110Y-187960D03*
X316230Y-429260D03*
X31750Y-530860D03*
X-261620Y-464820D03*
X-471170Y-250190D03*
X-532130Y44450D03*
X-422910Y325120D03*
X381000Y373380D03*
X520700Y109220D03*
X529590Y-44450D03*
X557530Y-88900D03*
X546100Y0D03*
D12*
X535940Y-60960D01*
X529590Y-64770D01*
D11*
X529590Y-64770D03*
M02*
