G04 EAGLE Gerber RS-274X export*
G75*
%MOMM*%
%FSLAX34Y34*%
%LPD*%
%INSolderpaste Top*%
%IPPOS*%
%AMOC8*
5,1,8,0,0,1.08239X$1,22.5*%
G01*
G04 Define Apertures*
%ADD10R,0.920900X0.970200*%
%ADD11R,0.900000X1.500000*%
%ADD12R,1.500000X0.900000*%
%ADD13R,0.798700X0.973900*%
D10*
X556436Y-44450D03*
X540944Y-44450D03*
G36*
X-504501Y265616D02*
X-500292Y273805D01*
X-491663Y269370D01*
X-495872Y261181D01*
X-504501Y265616D01*
G37*
G36*
X-511582Y251838D02*
X-507373Y260027D01*
X-498744Y255592D01*
X-502953Y247403D01*
X-511582Y251838D01*
G37*
G36*
X-524298Y196288D02*
X-533161Y198779D01*
X-530536Y208118D01*
X-521673Y205627D01*
X-524298Y196288D01*
G37*
G36*
X-509384Y192096D02*
X-518247Y194587D01*
X-515622Y203926D01*
X-506759Y201435D01*
X-509384Y192096D01*
G37*
G36*
X-567742Y-49318D02*
X-568465Y-40139D01*
X-558794Y-39378D01*
X-558071Y-48557D01*
X-567742Y-49318D01*
G37*
G36*
X-566526Y-64762D02*
X-567249Y-55583D01*
X-557578Y-54822D01*
X-556855Y-64001D01*
X-566526Y-64762D01*
G37*
G36*
X-543107Y-118043D02*
X-551898Y-120781D01*
X-554783Y-111519D01*
X-545992Y-108781D01*
X-543107Y-118043D01*
G37*
G36*
X-528316Y-113436D02*
X-537107Y-116174D01*
X-539992Y-106912D01*
X-531201Y-104174D01*
X-528316Y-113436D01*
G37*
G36*
X-450228Y-347494D02*
X-455922Y-340259D01*
X-448298Y-334260D01*
X-442604Y-341495D01*
X-450228Y-347494D01*
G37*
G36*
X-440647Y-359668D02*
X-446341Y-352433D01*
X-438717Y-346434D01*
X-433023Y-353669D01*
X-440647Y-359668D01*
G37*
G36*
X-393299Y-390105D02*
X-399424Y-396979D01*
X-406667Y-390525D01*
X-400542Y-383651D01*
X-393299Y-390105D01*
G37*
G36*
X-382994Y-378538D02*
X-389119Y-385412D01*
X-396362Y-378958D01*
X-390237Y-372084D01*
X-382994Y-378538D01*
G37*
G36*
X-188335Y-535360D02*
X-197051Y-532393D01*
X-193925Y-523210D01*
X-185209Y-526177D01*
X-188335Y-535360D01*
G37*
G36*
X-173669Y-540353D02*
X-182385Y-537386D01*
X-179259Y-528203D01*
X-170543Y-531170D01*
X-173669Y-540353D01*
G37*
G36*
X-118868Y-544486D02*
X-120515Y-553545D01*
X-130060Y-551810D01*
X-128413Y-542751D01*
X-118868Y-544486D01*
G37*
G36*
X-116098Y-529243D02*
X-117745Y-538302D01*
X-127290Y-536567D01*
X-125643Y-527508D01*
X-116098Y-529243D01*
G37*
G36*
X128794Y-552333D02*
X119849Y-554514D01*
X117552Y-545089D01*
X126497Y-542908D01*
X128794Y-552333D01*
G37*
G36*
X143846Y-548664D02*
X134901Y-550845D01*
X132604Y-541420D01*
X141549Y-539239D01*
X143846Y-548664D01*
G37*
G36*
X193320Y-521219D02*
X197109Y-529610D01*
X188268Y-533603D01*
X184479Y-525212D01*
X193320Y-521219D01*
G37*
G36*
X186945Y-507100D02*
X190734Y-515491D01*
X181893Y-519484D01*
X178104Y-511093D01*
X186945Y-507100D01*
G37*
G36*
X530670Y206424D02*
X533804Y197767D01*
X524682Y194464D01*
X521548Y203121D01*
X530670Y206424D01*
G37*
G36*
X525397Y220991D02*
X528531Y212334D01*
X519409Y209031D01*
X516275Y217688D01*
X525397Y220991D01*
G37*
G36*
X408709Y-396539D02*
X402164Y-403016D01*
X395341Y-396121D01*
X401886Y-389644D01*
X408709Y-396539D01*
G37*
G36*
X419720Y-385642D02*
X413175Y-392119D01*
X406352Y-385224D01*
X412897Y-378747D01*
X419720Y-385642D01*
G37*
G36*
X444718Y-332019D02*
X452333Y-337194D01*
X446880Y-345217D01*
X439265Y-340042D01*
X444718Y-332019D01*
G37*
G36*
X431905Y-323311D02*
X439520Y-328486D01*
X434067Y-336509D01*
X426452Y-331334D01*
X431905Y-323311D01*
G37*
G36*
X558391Y-112699D02*
X556586Y-121728D01*
X547073Y-119827D01*
X548878Y-110798D01*
X558391Y-112699D01*
G37*
G36*
X561427Y-97507D02*
X559622Y-106536D01*
X550109Y-104635D01*
X551914Y-95606D01*
X561427Y-97507D01*
G37*
G36*
X487637Y265113D02*
X495349Y270142D01*
X500647Y262015D01*
X492935Y256986D01*
X487637Y265113D01*
G37*
G36*
X474659Y256653D02*
X482371Y261682D01*
X487669Y253555D01*
X479957Y248526D01*
X474659Y256653D01*
G37*
G36*
X332943Y462734D02*
X340315Y457218D01*
X334503Y449450D01*
X327131Y454966D01*
X332943Y462734D01*
G37*
G36*
X320538Y472014D02*
X327910Y466498D01*
X322098Y458730D01*
X314726Y464246D01*
X320538Y472014D01*
G37*
G36*
X267132Y488446D02*
X271096Y496756D01*
X279852Y492580D01*
X275888Y484270D01*
X267132Y488446D01*
G37*
G36*
X260462Y474463D02*
X264426Y482773D01*
X273182Y478597D01*
X269218Y470287D01*
X260462Y474463D01*
G37*
G36*
X32450Y569365D02*
X41649Y568963D01*
X41226Y559271D01*
X32027Y559673D01*
X32450Y569365D01*
G37*
G36*
X16972Y570041D02*
X26171Y569639D01*
X25748Y559947D01*
X16549Y560349D01*
X16972Y570041D01*
G37*
G36*
X-39376Y554485D02*
X-40498Y563623D01*
X-30870Y564805D01*
X-29748Y555667D01*
X-39376Y554485D01*
G37*
G36*
X-37488Y539108D02*
X-38610Y548246D01*
X-28982Y549428D01*
X-27860Y540290D01*
X-37488Y539108D01*
G37*
G36*
X-280119Y495198D02*
X-272252Y499981D01*
X-267211Y491692D01*
X-275078Y486909D01*
X-280119Y495198D01*
G37*
G36*
X-293356Y487149D02*
X-285489Y491932D01*
X-280448Y483643D01*
X-288315Y478860D01*
X-293356Y487149D01*
G37*
G36*
X-334560Y451512D02*
X-339998Y458942D01*
X-332170Y464672D01*
X-326732Y457242D01*
X-334560Y451512D01*
G37*
G36*
X-325411Y439011D02*
X-330849Y446441D01*
X-323021Y452171D01*
X-317583Y444741D01*
X-325411Y439011D01*
G37*
D11*
X531500Y-24500D03*
X564500Y-24500D03*
X531500Y24500D03*
X564500Y24500D03*
D12*
G36*
X-441724Y304094D02*
X-433621Y316716D01*
X-426048Y311854D01*
X-434151Y299232D01*
X-441724Y304094D01*
G37*
G36*
X-469494Y321922D02*
X-461391Y334544D01*
X-453818Y329682D01*
X-461921Y317060D01*
X-469494Y321922D01*
G37*
G36*
X-468196Y262860D02*
X-460093Y275482D01*
X-452520Y270620D01*
X-460623Y257998D01*
X-468196Y262860D01*
G37*
G36*
X-495966Y280688D02*
X-487863Y293310D01*
X-480290Y288448D01*
X-488393Y275826D01*
X-495966Y280688D01*
G37*
G36*
X-509513Y167339D02*
X-505303Y181735D01*
X-496665Y179209D01*
X-500875Y164813D01*
X-509513Y167339D01*
G37*
G36*
X-541187Y176601D02*
X-536977Y190997D01*
X-528339Y188471D01*
X-532549Y174075D01*
X-541187Y176601D01*
G37*
G36*
X-523266Y120308D02*
X-519056Y134704D01*
X-510418Y132178D01*
X-514628Y117782D01*
X-523266Y120308D01*
G37*
G36*
X-554939Y129570D02*
X-550729Y143966D01*
X-542091Y141440D01*
X-546301Y127044D01*
X-554939Y129570D01*
G37*
D11*
X-531500Y24500D03*
X-564500Y24500D03*
X-531500Y-24500D03*
X-564500Y-24500D03*
D12*
G36*
X-519056Y-134704D02*
X-523266Y-120308D01*
X-514628Y-117782D01*
X-510418Y-132178D01*
X-519056Y-134704D01*
G37*
G36*
X-550729Y-143966D02*
X-554939Y-129570D01*
X-546301Y-127044D01*
X-542091Y-141440D01*
X-550729Y-143966D01*
G37*
G36*
X-505303Y-181735D02*
X-509513Y-167339D01*
X-500875Y-164813D01*
X-496665Y-179209D01*
X-505303Y-181735D01*
G37*
G36*
X-536977Y-190997D02*
X-541187Y-176601D01*
X-532549Y-174075D01*
X-528339Y-188471D01*
X-536977Y-190997D01*
G37*
G36*
X-460093Y-275482D02*
X-468196Y-262860D01*
X-460623Y-257998D01*
X-452520Y-270620D01*
X-460093Y-275482D01*
G37*
G36*
X-487863Y-293310D02*
X-495966Y-280688D01*
X-488393Y-275826D01*
X-480290Y-288448D01*
X-487863Y-293310D01*
G37*
G36*
X-433621Y-316716D02*
X-441724Y-304094D01*
X-434151Y-299232D01*
X-426048Y-311854D01*
X-433621Y-316716D01*
G37*
G36*
X-461391Y-334544D02*
X-469494Y-321922D01*
X-461921Y-317060D01*
X-453818Y-329682D01*
X-461391Y-334544D01*
G37*
G36*
X-363857Y-393949D02*
X-375194Y-384129D01*
X-369301Y-377327D01*
X-357964Y-387147D01*
X-363857Y-393949D01*
G37*
G36*
X-385463Y-418892D02*
X-396800Y-409072D01*
X-390907Y-402270D01*
X-379570Y-412090D01*
X-385463Y-418892D01*
G37*
G36*
X-326820Y-426031D02*
X-338157Y-416211D01*
X-332264Y-409409D01*
X-320927Y-419229D01*
X-326820Y-426031D01*
G37*
G36*
X-348426Y-450974D02*
X-359763Y-441154D01*
X-353870Y-434352D01*
X-342533Y-444172D01*
X-348426Y-450974D01*
G37*
G36*
X-238141Y-480509D02*
X-251789Y-474288D01*
X-248057Y-466099D01*
X-234409Y-472320D01*
X-238141Y-480509D01*
G37*
G36*
X-251826Y-510538D02*
X-265474Y-504317D01*
X-261742Y-496128D01*
X-248094Y-502349D01*
X-251826Y-510538D01*
G37*
G36*
X-193553Y-500829D02*
X-207201Y-494608D01*
X-203469Y-486419D01*
X-189821Y-492640D01*
X-193553Y-500829D01*
G37*
G36*
X-207238Y-530858D02*
X-220886Y-524637D01*
X-217154Y-516448D01*
X-203506Y-522669D01*
X-207238Y-530858D01*
G37*
G36*
X-93104Y-528119D02*
X-107950Y-525980D01*
X-106666Y-517073D01*
X-91820Y-519212D01*
X-93104Y-528119D01*
G37*
G36*
X-97810Y-560782D02*
X-112656Y-558643D01*
X-111372Y-549736D01*
X-96526Y-551875D01*
X-97810Y-560782D01*
G37*
G36*
X-44605Y-535108D02*
X-59451Y-532969D01*
X-58167Y-524062D01*
X-43321Y-526201D01*
X-44605Y-535108D01*
G37*
G36*
X-49311Y-567771D02*
X-64157Y-565632D01*
X-62873Y-556725D01*
X-48027Y-558864D01*
X-49311Y-567771D01*
G37*
G36*
X59451Y-532969D02*
X44605Y-535108D01*
X43321Y-526201D01*
X58167Y-524062D01*
X59451Y-532969D01*
G37*
G36*
X64157Y-565632D02*
X49311Y-567771D01*
X48027Y-558864D01*
X62873Y-556725D01*
X64157Y-565632D01*
G37*
G36*
X107950Y-525980D02*
X93104Y-528119D01*
X91820Y-519212D01*
X106666Y-517073D01*
X107950Y-525980D01*
G37*
G36*
X112656Y-558643D02*
X97810Y-560782D01*
X96526Y-551875D01*
X111372Y-549736D01*
X112656Y-558643D01*
G37*
G36*
X207201Y-494608D02*
X193553Y-500829D01*
X189821Y-492640D01*
X203469Y-486419D01*
X207201Y-494608D01*
G37*
G36*
X220886Y-524637D02*
X207238Y-530858D01*
X203506Y-522669D01*
X217154Y-516448D01*
X220886Y-524637D01*
G37*
G36*
X251789Y-474288D02*
X238141Y-480509D01*
X234409Y-472320D01*
X248057Y-466099D01*
X251789Y-474288D01*
G37*
G36*
X265474Y-504317D02*
X251826Y-510538D01*
X248094Y-502349D01*
X261742Y-496128D01*
X265474Y-504317D01*
G37*
G36*
X519056Y134704D02*
X523266Y120308D01*
X514628Y117782D01*
X510418Y132178D01*
X519056Y134704D01*
G37*
G36*
X550729Y143966D02*
X554939Y129570D01*
X546301Y127044D01*
X542091Y141440D01*
X550729Y143966D01*
G37*
G36*
X505303Y181735D02*
X509513Y167339D01*
X500875Y164813D01*
X496665Y179209D01*
X505303Y181735D01*
G37*
G36*
X536977Y190997D02*
X541187Y176601D01*
X532549Y174075D01*
X528339Y188471D01*
X536977Y190997D01*
G37*
G36*
X338157Y-416211D02*
X326820Y-426031D01*
X320927Y-419229D01*
X332264Y-409409D01*
X338157Y-416211D01*
G37*
G36*
X359763Y-441154D02*
X348426Y-450974D01*
X342533Y-444172D01*
X353870Y-434352D01*
X359763Y-441154D01*
G37*
G36*
X375194Y-384129D02*
X363857Y-393949D01*
X357964Y-387147D01*
X369301Y-377327D01*
X375194Y-384129D01*
G37*
G36*
X396800Y-409072D02*
X385463Y-418892D01*
X379570Y-412090D01*
X390907Y-402270D01*
X396800Y-409072D01*
G37*
G36*
X441724Y-304094D02*
X433621Y-316716D01*
X426048Y-311854D01*
X434151Y-299232D01*
X441724Y-304094D01*
G37*
G36*
X469494Y-321922D02*
X461391Y-334544D01*
X453818Y-329682D01*
X461921Y-317060D01*
X469494Y-321922D01*
G37*
G36*
X468196Y-262860D02*
X460093Y-275482D01*
X452520Y-270620D01*
X460623Y-257998D01*
X468196Y-262860D01*
G37*
G36*
X495966Y-280688D02*
X487863Y-293310D01*
X480290Y-288448D01*
X488393Y-275826D01*
X495966Y-280688D01*
G37*
G36*
X509513Y-167339D02*
X505303Y-181735D01*
X496665Y-179209D01*
X500875Y-164813D01*
X509513Y-167339D01*
G37*
G36*
X541187Y-176601D02*
X536977Y-190997D01*
X528339Y-188471D01*
X532549Y-174075D01*
X541187Y-176601D01*
G37*
G36*
X523266Y-120308D02*
X519056Y-134704D01*
X510418Y-132178D01*
X514628Y-117782D01*
X523266Y-120308D01*
G37*
G36*
X554939Y-129570D02*
X550729Y-143966D01*
X542091Y-141440D01*
X546301Y-127044D01*
X554939Y-129570D01*
G37*
G36*
X460093Y275482D02*
X468196Y262860D01*
X460623Y257998D01*
X452520Y270620D01*
X460093Y275482D01*
G37*
G36*
X487863Y293310D02*
X495966Y280688D01*
X488393Y275826D01*
X480290Y288448D01*
X487863Y293310D01*
G37*
G36*
X433621Y316716D02*
X441724Y304094D01*
X434151Y299232D01*
X426048Y311854D01*
X433621Y316716D01*
G37*
G36*
X461391Y334544D02*
X469494Y321922D01*
X461921Y317060D01*
X453818Y329682D01*
X461391Y334544D01*
G37*
G36*
X363857Y393949D02*
X375194Y384129D01*
X369301Y377327D01*
X357964Y387147D01*
X363857Y393949D01*
G37*
G36*
X385463Y418892D02*
X396800Y409072D01*
X390907Y402270D01*
X379570Y412090D01*
X385463Y418892D01*
G37*
G36*
X326820Y426031D02*
X338157Y416211D01*
X332264Y409409D01*
X320927Y419229D01*
X326820Y426031D01*
G37*
G36*
X348426Y450974D02*
X359763Y441154D01*
X353870Y434352D01*
X342533Y444172D01*
X348426Y450974D01*
G37*
G36*
X238141Y480509D02*
X251789Y474288D01*
X248057Y466099D01*
X234409Y472320D01*
X238141Y480509D01*
G37*
G36*
X251826Y510538D02*
X265474Y504317D01*
X261742Y496128D01*
X248094Y502349D01*
X251826Y510538D01*
G37*
G36*
X193553Y500829D02*
X207201Y494608D01*
X203469Y486419D01*
X189821Y492640D01*
X193553Y500829D01*
G37*
G36*
X207238Y530858D02*
X220886Y524637D01*
X217154Y516448D01*
X203506Y522669D01*
X207238Y530858D01*
G37*
G36*
X93104Y528119D02*
X107950Y525980D01*
X106666Y517073D01*
X91820Y519212D01*
X93104Y528119D01*
G37*
G36*
X97810Y560782D02*
X112656Y558643D01*
X111372Y549736D01*
X96526Y551875D01*
X97810Y560782D01*
G37*
G36*
X44605Y535108D02*
X59451Y532969D01*
X58167Y524062D01*
X43321Y526201D01*
X44605Y535108D01*
G37*
G36*
X49311Y567771D02*
X64157Y565632D01*
X62873Y556725D01*
X48027Y558864D01*
X49311Y567771D01*
G37*
G36*
X-59451Y532969D02*
X-44605Y535108D01*
X-43321Y526201D01*
X-58167Y524062D01*
X-59451Y532969D01*
G37*
G36*
X-64157Y565632D02*
X-49311Y567771D01*
X-48027Y558864D01*
X-62873Y556725D01*
X-64157Y565632D01*
G37*
G36*
X-107950Y525980D02*
X-93104Y528119D01*
X-91820Y519212D01*
X-106666Y517073D01*
X-107950Y525980D01*
G37*
G36*
X-112656Y558643D02*
X-97810Y560782D01*
X-96526Y551875D01*
X-111372Y549736D01*
X-112656Y558643D01*
G37*
G36*
X-207201Y494608D02*
X-193553Y500829D01*
X-189821Y492640D01*
X-203469Y486419D01*
X-207201Y494608D01*
G37*
G36*
X-220886Y524637D02*
X-207238Y530858D01*
X-203506Y522669D01*
X-217154Y516448D01*
X-220886Y524637D01*
G37*
G36*
X-251789Y474288D02*
X-238141Y480509D01*
X-234409Y472320D01*
X-248057Y466099D01*
X-251789Y474288D01*
G37*
G36*
X-265474Y504317D02*
X-251826Y510538D01*
X-248094Y502349D01*
X-261742Y496128D01*
X-265474Y504317D01*
G37*
G36*
X-338157Y416211D02*
X-326820Y426031D01*
X-320927Y419229D01*
X-332264Y409409D01*
X-338157Y416211D01*
G37*
G36*
X-359763Y441154D02*
X-348426Y450974D01*
X-342533Y444172D01*
X-353870Y434352D01*
X-359763Y441154D01*
G37*
G36*
X-375194Y384129D02*
X-363857Y393949D01*
X-357964Y387147D01*
X-369301Y377327D01*
X-375194Y384129D01*
G37*
G36*
X-396800Y409072D02*
X-385463Y418892D01*
X-379570Y412090D01*
X-390907Y402270D01*
X-396800Y409072D01*
G37*
D13*
G36*
X540914Y-74506D02*
X548820Y-75632D01*
X547448Y-85272D01*
X539542Y-84146D01*
X540914Y-74506D01*
G37*
G36*
X524773Y-72208D02*
X532679Y-73334D01*
X531307Y-82974D01*
X523401Y-81848D01*
X524773Y-72208D01*
G37*
M02*
