G04 EAGLE Gerber RS-274X export*
G75*
%MOMM*%
%FSLAX34Y34*%
%LPD*%
%INSoldermask Top*%
%IPPOS*%
%AMOC8*
5,1,8,0,0,1.08239X$1,22.5*%
G01*
G04 Define Apertures*
%ADD10R,1.124100X1.173400*%
%ADD11R,1.103200X1.703200*%
%ADD12R,1.703200X1.103200*%
%ADD13R,1.001900X1.177100*%
%ADD14P,2.96921X8X22.5*%
%ADD15C,0.959600*%
D10*
X556436Y-44450D03*
X540944Y-44450D03*
G36*
X-505869Y265177D02*
X-500731Y275173D01*
X-490295Y269809D01*
X-495433Y259813D01*
X-505869Y265177D01*
G37*
G36*
X-512950Y251399D02*
X-507812Y261395D01*
X-497376Y256031D01*
X-502514Y246035D01*
X-512950Y251399D01*
G37*
G36*
X-523595Y195035D02*
X-534414Y198076D01*
X-531239Y209371D01*
X-520420Y206330D01*
X-523595Y195035D01*
G37*
G36*
X-508681Y190843D02*
X-519500Y193884D01*
X-516325Y205179D01*
X-505506Y202138D01*
X-508681Y190843D01*
G37*
G36*
X-568675Y-50410D02*
X-569557Y-39206D01*
X-557861Y-38286D01*
X-556979Y-49490D01*
X-568675Y-50410D01*
G37*
G36*
X-567459Y-65854D02*
X-568341Y-54650D01*
X-556645Y-53730D01*
X-555763Y-64934D01*
X-567459Y-65854D01*
G37*
G36*
X-541835Y-118711D02*
X-552566Y-122053D01*
X-556055Y-110851D01*
X-545324Y-107509D01*
X-541835Y-118711D01*
G37*
G36*
X-527044Y-114104D02*
X-537775Y-117446D01*
X-541264Y-106244D01*
X-530533Y-102902D01*
X-527044Y-114104D01*
G37*
G36*
X-450398Y-348921D02*
X-457349Y-340089D01*
X-448128Y-332833D01*
X-441177Y-341665D01*
X-450398Y-348921D01*
G37*
G36*
X-440817Y-361095D02*
X-447768Y-352263D01*
X-438547Y-345007D01*
X-431596Y-353839D01*
X-440817Y-361095D01*
G37*
G36*
X-391864Y-390022D02*
X-399342Y-398414D01*
X-408102Y-390608D01*
X-400624Y-382216D01*
X-391864Y-390022D01*
G37*
G36*
X-381559Y-378455D02*
X-389037Y-386847D01*
X-397797Y-379041D01*
X-390319Y-370649D01*
X-381559Y-378455D01*
G37*
G36*
X-187701Y-536650D02*
X-198340Y-533027D01*
X-194559Y-521920D01*
X-183920Y-525543D01*
X-187701Y-536650D01*
G37*
G36*
X-173035Y-541643D02*
X-183674Y-538020D01*
X-179893Y-526913D01*
X-169254Y-530536D01*
X-173035Y-541643D01*
G37*
G36*
X-117687Y-543668D02*
X-119697Y-554726D01*
X-131241Y-552628D01*
X-129231Y-541570D01*
X-117687Y-543668D01*
G37*
G36*
X-114917Y-528425D02*
X-116927Y-539483D01*
X-128471Y-537385D01*
X-126461Y-526327D01*
X-114917Y-528425D01*
G37*
G36*
X130022Y-553080D02*
X119103Y-555742D01*
X116324Y-544342D01*
X127243Y-541680D01*
X130022Y-553080D01*
G37*
G36*
X145074Y-549411D02*
X134155Y-552073D01*
X131376Y-540673D01*
X142295Y-538011D01*
X145074Y-549411D01*
G37*
G36*
X193828Y-519875D02*
X198453Y-530118D01*
X187760Y-534947D01*
X183135Y-524704D01*
X193828Y-519875D01*
G37*
G36*
X187453Y-505756D02*
X192078Y-515999D01*
X181385Y-520828D01*
X176760Y-510585D01*
X187453Y-505756D01*
G37*
G36*
X531279Y207725D02*
X535105Y197157D01*
X524073Y193163D01*
X520247Y203731D01*
X531279Y207725D01*
G37*
G36*
X526006Y222292D02*
X529832Y211724D01*
X518800Y207730D01*
X514974Y218298D01*
X526006Y222292D01*
G37*
G36*
X410146Y-396547D02*
X402157Y-404453D01*
X393904Y-396113D01*
X401893Y-388207D01*
X410146Y-396547D01*
G37*
G36*
X421157Y-385650D02*
X413168Y-393556D01*
X404915Y-385216D01*
X412904Y-377310D01*
X421157Y-385650D01*
G37*
G36*
X444449Y-330607D02*
X453744Y-336925D01*
X447149Y-346629D01*
X437854Y-340311D01*
X444449Y-330607D01*
G37*
G36*
X431636Y-321899D02*
X440931Y-328217D01*
X434336Y-337921D01*
X425041Y-331603D01*
X431636Y-321899D01*
G37*
G36*
X559586Y-111902D02*
X557384Y-122923D01*
X545878Y-120624D01*
X548080Y-109603D01*
X559586Y-111902D01*
G37*
G36*
X562622Y-96710D02*
X560420Y-107731D01*
X548914Y-105432D01*
X551116Y-94411D01*
X562622Y-96710D01*
G37*
G36*
X486231Y265409D02*
X495645Y271547D01*
X502053Y261719D01*
X492639Y255581D01*
X486231Y265409D01*
G37*
G36*
X473253Y256949D02*
X482667Y263087D01*
X489075Y253259D01*
X479661Y247121D01*
X473253Y256949D01*
G37*
G36*
X332738Y464156D02*
X341737Y457423D01*
X334708Y448028D01*
X325709Y454761D01*
X332738Y464156D01*
G37*
G36*
X320333Y473436D02*
X329332Y466703D01*
X322303Y457308D01*
X313304Y464041D01*
X320333Y473436D01*
G37*
G36*
X265778Y487967D02*
X270617Y498111D01*
X281206Y493059D01*
X276367Y482915D01*
X265778Y487967D01*
G37*
G36*
X259108Y473984D02*
X263947Y484128D01*
X274536Y479076D01*
X269697Y468932D01*
X259108Y473984D01*
G37*
G36*
X31480Y570424D02*
X42708Y569934D01*
X42196Y558212D01*
X30968Y558702D01*
X31480Y570424D01*
G37*
G36*
X16002Y571100D02*
X27230Y570610D01*
X26718Y558888D01*
X15490Y559378D01*
X16002Y571100D01*
G37*
G36*
X-40261Y553352D02*
X-41631Y564508D01*
X-29985Y565938D01*
X-28615Y554782D01*
X-40261Y553352D01*
G37*
G36*
X-38373Y537975D02*
X-39743Y549131D01*
X-28097Y550561D01*
X-26727Y539405D01*
X-38373Y537975D01*
G37*
G36*
X-281515Y495538D02*
X-271911Y501377D01*
X-265815Y491352D01*
X-275419Y485513D01*
X-281515Y495538D01*
G37*
G36*
X-294752Y487489D02*
X-285148Y493328D01*
X-279052Y483303D01*
X-288656Y477464D01*
X-294752Y487489D01*
G37*
G36*
X-334780Y450092D02*
X-341418Y459162D01*
X-331950Y466092D01*
X-325312Y457022D01*
X-334780Y450092D01*
G37*
G36*
X-325631Y437591D02*
X-332269Y446661D01*
X-322801Y453591D01*
X-316163Y444521D01*
X-325631Y437591D01*
G37*
D11*
X531500Y-24500D03*
X564500Y-24500D03*
X531500Y24500D03*
X564500Y24500D03*
D12*
G36*
X-443128Y303788D02*
X-433927Y318120D01*
X-424644Y312160D01*
X-433845Y297828D01*
X-443128Y303788D01*
G37*
G36*
X-470898Y321616D02*
X-461697Y335948D01*
X-452414Y329988D01*
X-461615Y315656D01*
X-470898Y321616D01*
G37*
G36*
X-469600Y262554D02*
X-460399Y276886D01*
X-451116Y270926D01*
X-460317Y256594D01*
X-469600Y262554D01*
G37*
G36*
X-497370Y280382D02*
X-488169Y294714D01*
X-478886Y288754D01*
X-488087Y274422D01*
X-497370Y280382D01*
G37*
G36*
X-510773Y166649D02*
X-505993Y182995D01*
X-495405Y179899D01*
X-500185Y163553D01*
X-510773Y166649D01*
G37*
G36*
X-542447Y175911D02*
X-537667Y192257D01*
X-527079Y189161D01*
X-531859Y172815D01*
X-542447Y175911D01*
G37*
G36*
X-524526Y119618D02*
X-519746Y135964D01*
X-509158Y132868D01*
X-513938Y116522D01*
X-524526Y119618D01*
G37*
G36*
X-556199Y128880D02*
X-551419Y145226D01*
X-540831Y142130D01*
X-545611Y125784D01*
X-556199Y128880D01*
G37*
D11*
X-531500Y24500D03*
X-564500Y24500D03*
X-531500Y-24500D03*
X-564500Y-24500D03*
D12*
G36*
X-519746Y-135964D02*
X-524526Y-119618D01*
X-513938Y-116522D01*
X-509158Y-132868D01*
X-519746Y-135964D01*
G37*
G36*
X-551419Y-145226D02*
X-556199Y-128880D01*
X-545611Y-125784D01*
X-540831Y-142130D01*
X-551419Y-145226D01*
G37*
G36*
X-505993Y-182995D02*
X-510773Y-166649D01*
X-500185Y-163553D01*
X-495405Y-179899D01*
X-505993Y-182995D01*
G37*
G36*
X-537667Y-192257D02*
X-542447Y-175911D01*
X-531859Y-172815D01*
X-527079Y-189161D01*
X-537667Y-192257D01*
G37*
G36*
X-460399Y-276886D02*
X-469600Y-262554D01*
X-460317Y-256594D01*
X-451116Y-270926D01*
X-460399Y-276886D01*
G37*
G36*
X-488169Y-294714D02*
X-497370Y-280382D01*
X-488087Y-274422D01*
X-478886Y-288754D01*
X-488169Y-294714D01*
G37*
G36*
X-433927Y-318120D02*
X-443128Y-303788D01*
X-433845Y-297828D01*
X-424644Y-312160D01*
X-433927Y-318120D01*
G37*
G36*
X-461697Y-335948D02*
X-470898Y-321616D01*
X-461615Y-315656D01*
X-452414Y-329988D01*
X-461697Y-335948D01*
G37*
G36*
X-363754Y-395383D02*
X-376627Y-384232D01*
X-369404Y-375893D01*
X-356531Y-387044D01*
X-363754Y-395383D01*
G37*
G36*
X-385360Y-420326D02*
X-398233Y-409175D01*
X-391010Y-400836D01*
X-378137Y-411987D01*
X-385360Y-420326D01*
G37*
G36*
X-326717Y-427465D02*
X-339590Y-416314D01*
X-332367Y-407975D01*
X-319494Y-419126D01*
X-326717Y-427465D01*
G37*
G36*
X-348323Y-452408D02*
X-361196Y-441257D01*
X-353973Y-432918D01*
X-341100Y-444069D01*
X-348323Y-452408D01*
G37*
G36*
X-237638Y-481854D02*
X-253135Y-474791D01*
X-248560Y-464754D01*
X-233063Y-471817D01*
X-237638Y-481854D01*
G37*
G36*
X-251323Y-511883D02*
X-266820Y-504820D01*
X-262245Y-494783D01*
X-246748Y-501846D01*
X-251323Y-511883D01*
G37*
G36*
X-193050Y-502174D02*
X-208547Y-495111D01*
X-203972Y-485074D01*
X-188475Y-492137D01*
X-193050Y-502174D01*
G37*
G36*
X-206735Y-532203D02*
X-222232Y-525140D01*
X-217657Y-515103D01*
X-202160Y-522166D01*
X-206735Y-532203D01*
G37*
G36*
X-92243Y-529270D02*
X-109100Y-526840D01*
X-107527Y-515922D01*
X-90670Y-518352D01*
X-92243Y-529270D01*
G37*
G36*
X-96949Y-561933D02*
X-113806Y-559503D01*
X-112233Y-548585D01*
X-95376Y-551015D01*
X-96949Y-561933D01*
G37*
G36*
X-43744Y-536259D02*
X-60601Y-533829D01*
X-59028Y-522911D01*
X-42171Y-525341D01*
X-43744Y-536259D01*
G37*
G36*
X-48450Y-568922D02*
X-65307Y-566492D01*
X-63734Y-555574D01*
X-46877Y-558004D01*
X-48450Y-568922D01*
G37*
G36*
X60601Y-533829D02*
X43744Y-536259D01*
X42171Y-525341D01*
X59028Y-522911D01*
X60601Y-533829D01*
G37*
G36*
X65307Y-566492D02*
X48450Y-568922D01*
X46877Y-558004D01*
X63734Y-555574D01*
X65307Y-566492D01*
G37*
G36*
X109100Y-526840D02*
X92243Y-529270D01*
X90670Y-518352D01*
X107527Y-515922D01*
X109100Y-526840D01*
G37*
G36*
X113806Y-559503D02*
X96949Y-561933D01*
X95376Y-551015D01*
X112233Y-548585D01*
X113806Y-559503D01*
G37*
G36*
X208547Y-495111D02*
X193050Y-502174D01*
X188475Y-492137D01*
X203972Y-485074D01*
X208547Y-495111D01*
G37*
G36*
X222232Y-525140D02*
X206735Y-532203D01*
X202160Y-522166D01*
X217657Y-515103D01*
X222232Y-525140D01*
G37*
G36*
X253135Y-474791D02*
X237638Y-481854D01*
X233063Y-471817D01*
X248560Y-464754D01*
X253135Y-474791D01*
G37*
G36*
X266820Y-504820D02*
X251323Y-511883D01*
X246748Y-501846D01*
X262245Y-494783D01*
X266820Y-504820D01*
G37*
G36*
X519746Y135964D02*
X524526Y119618D01*
X513938Y116522D01*
X509158Y132868D01*
X519746Y135964D01*
G37*
G36*
X551419Y145226D02*
X556199Y128880D01*
X545611Y125784D01*
X540831Y142130D01*
X551419Y145226D01*
G37*
G36*
X505993Y182995D02*
X510773Y166649D01*
X500185Y163553D01*
X495405Y179899D01*
X505993Y182995D01*
G37*
G36*
X537667Y192257D02*
X542447Y175911D01*
X531859Y172815D01*
X527079Y189161D01*
X537667Y192257D01*
G37*
G36*
X339590Y-416314D02*
X326717Y-427465D01*
X319494Y-419126D01*
X332367Y-407975D01*
X339590Y-416314D01*
G37*
G36*
X361196Y-441257D02*
X348323Y-452408D01*
X341100Y-444069D01*
X353973Y-432918D01*
X361196Y-441257D01*
G37*
G36*
X376627Y-384232D02*
X363754Y-395383D01*
X356531Y-387044D01*
X369404Y-375893D01*
X376627Y-384232D01*
G37*
G36*
X398233Y-409175D02*
X385360Y-420326D01*
X378137Y-411987D01*
X391010Y-400836D01*
X398233Y-409175D01*
G37*
G36*
X443128Y-303788D02*
X433927Y-318120D01*
X424644Y-312160D01*
X433845Y-297828D01*
X443128Y-303788D01*
G37*
G36*
X470898Y-321616D02*
X461697Y-335948D01*
X452414Y-329988D01*
X461615Y-315656D01*
X470898Y-321616D01*
G37*
G36*
X469600Y-262554D02*
X460399Y-276886D01*
X451116Y-270926D01*
X460317Y-256594D01*
X469600Y-262554D01*
G37*
G36*
X497370Y-280382D02*
X488169Y-294714D01*
X478886Y-288754D01*
X488087Y-274422D01*
X497370Y-280382D01*
G37*
G36*
X510773Y-166649D02*
X505993Y-182995D01*
X495405Y-179899D01*
X500185Y-163553D01*
X510773Y-166649D01*
G37*
G36*
X542447Y-175911D02*
X537667Y-192257D01*
X527079Y-189161D01*
X531859Y-172815D01*
X542447Y-175911D01*
G37*
G36*
X524526Y-119618D02*
X519746Y-135964D01*
X509158Y-132868D01*
X513938Y-116522D01*
X524526Y-119618D01*
G37*
G36*
X556199Y-128880D02*
X551419Y-145226D01*
X540831Y-142130D01*
X545611Y-125784D01*
X556199Y-128880D01*
G37*
G36*
X460399Y276886D02*
X469600Y262554D01*
X460317Y256594D01*
X451116Y270926D01*
X460399Y276886D01*
G37*
G36*
X488169Y294714D02*
X497370Y280382D01*
X488087Y274422D01*
X478886Y288754D01*
X488169Y294714D01*
G37*
G36*
X433927Y318120D02*
X443128Y303788D01*
X433845Y297828D01*
X424644Y312160D01*
X433927Y318120D01*
G37*
G36*
X461697Y335948D02*
X470898Y321616D01*
X461615Y315656D01*
X452414Y329988D01*
X461697Y335948D01*
G37*
G36*
X363754Y395383D02*
X376627Y384232D01*
X369404Y375893D01*
X356531Y387044D01*
X363754Y395383D01*
G37*
G36*
X385360Y420326D02*
X398233Y409175D01*
X391010Y400836D01*
X378137Y411987D01*
X385360Y420326D01*
G37*
G36*
X326717Y427465D02*
X339590Y416314D01*
X332367Y407975D01*
X319494Y419126D01*
X326717Y427465D01*
G37*
G36*
X348323Y452408D02*
X361196Y441257D01*
X353973Y432918D01*
X341100Y444069D01*
X348323Y452408D01*
G37*
G36*
X237638Y481854D02*
X253135Y474791D01*
X248560Y464754D01*
X233063Y471817D01*
X237638Y481854D01*
G37*
G36*
X251323Y511883D02*
X266820Y504820D01*
X262245Y494783D01*
X246748Y501846D01*
X251323Y511883D01*
G37*
G36*
X193050Y502174D02*
X208547Y495111D01*
X203972Y485074D01*
X188475Y492137D01*
X193050Y502174D01*
G37*
G36*
X206735Y532203D02*
X222232Y525140D01*
X217657Y515103D01*
X202160Y522166D01*
X206735Y532203D01*
G37*
G36*
X92243Y529270D02*
X109100Y526840D01*
X107527Y515922D01*
X90670Y518352D01*
X92243Y529270D01*
G37*
G36*
X96949Y561933D02*
X113806Y559503D01*
X112233Y548585D01*
X95376Y551015D01*
X96949Y561933D01*
G37*
G36*
X43744Y536259D02*
X60601Y533829D01*
X59028Y522911D01*
X42171Y525341D01*
X43744Y536259D01*
G37*
G36*
X48450Y568922D02*
X65307Y566492D01*
X63734Y555574D01*
X46877Y558004D01*
X48450Y568922D01*
G37*
G36*
X-60601Y533829D02*
X-43744Y536259D01*
X-42171Y525341D01*
X-59028Y522911D01*
X-60601Y533829D01*
G37*
G36*
X-65307Y566492D02*
X-48450Y568922D01*
X-46877Y558004D01*
X-63734Y555574D01*
X-65307Y566492D01*
G37*
G36*
X-109100Y526840D02*
X-92243Y529270D01*
X-90670Y518352D01*
X-107527Y515922D01*
X-109100Y526840D01*
G37*
G36*
X-113806Y559503D02*
X-96949Y561933D01*
X-95376Y551015D01*
X-112233Y548585D01*
X-113806Y559503D01*
G37*
G36*
X-208547Y495111D02*
X-193050Y502174D01*
X-188475Y492137D01*
X-203972Y485074D01*
X-208547Y495111D01*
G37*
G36*
X-222232Y525140D02*
X-206735Y532203D01*
X-202160Y522166D01*
X-217657Y515103D01*
X-222232Y525140D01*
G37*
G36*
X-253135Y474791D02*
X-237638Y481854D01*
X-233063Y471817D01*
X-248560Y464754D01*
X-253135Y474791D01*
G37*
G36*
X-266820Y504820D02*
X-251323Y511883D01*
X-246748Y501846D01*
X-262245Y494783D01*
X-266820Y504820D01*
G37*
G36*
X-339590Y416314D02*
X-326717Y427465D01*
X-319494Y419126D01*
X-332367Y407975D01*
X-339590Y416314D01*
G37*
G36*
X-361196Y441257D02*
X-348323Y452408D01*
X-341100Y444069D01*
X-353973Y432918D01*
X-361196Y441257D01*
G37*
G36*
X-376627Y384232D02*
X-363754Y395383D01*
X-356531Y387044D01*
X-369404Y375893D01*
X-376627Y384232D01*
G37*
G36*
X-398233Y409175D02*
X-385360Y420326D01*
X-378137Y411987D01*
X-391010Y400836D01*
X-398233Y409175D01*
G37*
D13*
G36*
X540052Y-73357D02*
X549969Y-74769D01*
X548310Y-86421D01*
X538393Y-85009D01*
X540052Y-73357D01*
G37*
G36*
X523911Y-71059D02*
X533828Y-72471D01*
X532169Y-84123D01*
X522252Y-82711D01*
X523911Y-71059D01*
G37*
D14*
X416560Y361950D03*
X501650Y-231140D03*
X546033Y83366D03*
D15*
X552450Y-24130D03*
X546100Y-66040D03*
X530860Y43180D03*
X535940Y130810D03*
X518160Y179070D03*
X474980Y274320D03*
X421640Y323850D03*
X381000Y396240D03*
X339090Y429260D03*
X250190Y487680D03*
X204470Y506730D03*
X102870Y539750D03*
X53340Y543560D03*
X-53340Y546100D03*
X-101600Y537210D03*
X-205740Y510540D03*
X-250190Y486410D03*
X-340360Y429260D03*
X-377190Y397510D03*
X-448310Y317500D03*
X-474980Y274320D03*
X-518160Y177800D03*
X-530860Y129540D03*
X-548640Y25400D03*
X-548640Y-25400D03*
X-532130Y-130810D03*
X-518160Y-177800D03*
X-474980Y-275590D03*
X-445770Y-316230D03*
X-375920Y-397510D03*
X-339090Y-429260D03*
X-250190Y-488950D03*
X-204470Y-509270D03*
X-102870Y-538480D03*
X-53340Y-544830D03*
X52070Y-546100D03*
X102870Y-538480D03*
X203200Y-508000D03*
X250190Y-487680D03*
X340360Y-431800D03*
X377190Y-397510D03*
X447040Y-317500D03*
X471170Y-250190D03*
X520700Y-180340D03*
X-177800Y501650D03*
X119380Y519430D03*
X261620Y466090D03*
X309880Y472440D03*
X-31750Y532130D03*
X8890Y565150D03*
X-314960Y431800D03*
X-298450Y477520D03*
X469900Y250190D03*
X515620Y228600D03*
X-511810Y240030D03*
X-497840Y193040D03*
X-560070Y-74930D03*
X-521970Y-109220D03*
X-430530Y-364490D03*
X-382270Y-370840D03*
X-162560Y-539750D03*
X-119380Y-520700D03*
X152400Y-542290D03*
X180340Y-501650D03*
X421640Y-374650D03*
X424180Y-323850D03*
X499110Y-187960D03*
X316230Y-429260D03*
X31750Y-530860D03*
X-261620Y-464820D03*
X-471170Y-250190D03*
X-532130Y44450D03*
X-422910Y325120D03*
X381000Y373380D03*
X520700Y109220D03*
X529590Y-44450D03*
X557530Y-88900D03*
X546100Y0D03*
X529590Y-64770D03*
M02*
